# xmcd
# 
# Track frame offsets:
#     187
#     18262
#     35939
#     54712
#     72437
#     88649
#     110737
#     134024
#     145649
#     164074
#     181062
#     197887
#     215812
#     236737
#     252962
#     269887
# 
# Disc length: 3817
# 
# Revision: 16
# Processed by: cddbd v1.5.2PL0 Copyright (c) Steve Scherf et al.
# Submitted via: fre:ac v1.0.31
# 
DISCID=070ee710
DTITLE=SOUTHERN ALL STARS - Happy! Three
DYEAR=1995
DGENRE=JPop
TTITLE0=エロティカ・セブン
TTITLE1=OH,GIRL
TTITLE2=海
TTITLE3=MY FOREPLAY MUSIC
TTITLE4=愛は花のように
TTITLE5=HAIR
TTITLE6=素敵なバーディー
TTITLE7=悲しみはメリーゴーランド
TTITLE8=夕方のHOLD ON ME
TTITLE9=ポカンポカンと雨が降る
TTITLE10=EMANON
TTITLE11=愛する女性とのすれ違い
TTITLE12=真夏の果実
TTITLE13=LOVE SICK CHICKEN
TTITLE14=聞きっ放しのマッシュルーム
TTITLE15=慕情
EXTD=YEAR: 1995
EXTT0=
EXTT1=
EXTT2=
EXTT3=
EXTT4=
EXTT5=
EXTT6=
EXTT7=
EXTT8=
EXTT9=
EXTT10=
EXTT11=
EXTT12=
EXTT13=
EXTT14=
EXTT15=
PLAYORDER=
